# xmcd
#
# Track frame offsets: 
#        150
#        15785
#        30809
#        44671
#        60171
#        83878
#        106140
#        117666
#        127764
#
# Disc length: 2066 seconds
#
# Revision: 0
# Processed by: cddbd v1.5.2PL0 Copyright (c) Steve Scherf et al.
# Submitted via: ExactAudioCopyFreeDBPlugin 1.0
#
DISCID=5c081009
DTITLE=Shadi Toloui-Wallace - Verdant Isle
DYEAR=2011
DGENRE=
TTITLE0=Attainment
TTITLE1=Fire and Gold
TTITLE2=Selfless in Adversity
TTITLE3=When Sorrow Comes
TTITLE4=Moth to a Flame
TTITLE5=In the Highest
TTITLE6=Free from Self
TTITLE7=O Friend
TTITLE8=Verdant Isle
EXTD=
EXTT0=
EXTT1=
EXTT2=
EXTT3=
EXTT4=
EXTT5=
EXTT6=
EXTT7=
EXTT8=
PLAYORDER=
